<svg width="24" height="25" viewBox="0 0 24 25" fill="none" xmlns="http://www.w3.org/2000/svg">
<rect width="24" height="24" transform="translate(0 0.8125)" fill="white"/>
<path fill-rule="evenodd" clip-rule="evenodd" d="M23.04 13.0738C23.04 12.2584 22.9668 11.4743 22.8309 10.7216H12V15.17H18.1891C17.9225 16.6075 17.1123 17.8254 15.8943 18.6409V21.5263H19.6109C21.7855 19.5243 23.04 16.5761 23.04 13.0738Z" fill="#4285F4"/>
<path fill-rule="evenodd" clip-rule="evenodd" d="M11.9999 24.3123C15.1049 24.3123 17.7081 23.2825 19.6108 21.5262L15.8942 18.6407C14.8645 19.3307 13.5472 19.7384 11.9999 19.7384C9.00469 19.7384 6.46946 17.7155 5.56514 14.9973H1.7231V17.9769C3.61537 21.7353 7.50446 24.3123 11.9999 24.3123Z" fill="#34A853"/>
<path fill-rule="evenodd" clip-rule="evenodd" d="M5.56523 14.9976C5.33523 14.3076 5.20455 13.5706 5.20455 12.8126C5.20455 12.0547 5.33523 11.3176 5.56523 10.6276V7.64807H1.72318C0.944318 9.20057 0.5 10.9569 0.5 12.8126C0.5 14.6683 0.944318 16.4247 1.72318 17.9772L5.56523 14.9976Z" fill="#FBBC05"/>
<path fill-rule="evenodd" clip-rule="evenodd" d="M11.9999 5.88636C13.6883 5.88636 15.2042 6.46659 16.3961 7.60614L19.6945 4.30773C17.7029 2.45205 15.0997 1.3125 11.9999 1.3125C7.50446 1.3125 3.61537 3.88955 1.7231 7.64795L5.56514 10.6275C6.46946 7.90932 9.00469 5.88636 11.9999 5.88636Z" fill="#EA4335"/>
</svg>
