<svg width="102" height="17" viewBox="0 0 102 17" fill="none" xmlns="http://www.w3.org/2000/svg">
<g id="Lives">
<path id="Vector" d="M6 0C9.315 0 12 2.06331 12 4.60865C12 2.06331 14.685 0 18 0C21.315 0 24 2.06331 24 4.60865C24 8.44488 19.149 9.79808 12.588 15.9045C12.5158 15.9716 12.4257 16.0255 12.3242 16.0625C12.2226 16.0995 12.112 16.1186 12 16.1186C11.888 16.1186 11.7774 16.0995 11.6758 16.0625C11.5743 16.0255 11.4842 15.9716 11.412 15.9045C4.851 9.79808 0 8.44488 0 4.60865C0 2.06331 2.685 0 6 0Z" fill="#C1121F"/>
<path id="Vector_2" d="M45 0C48.315 0 51 2.06331 51 4.60865C51 2.06331 53.685 0 57 0C60.315 0 63 2.06331 63 4.60865C63 8.44488 58.149 9.79808 51.588 15.9045C51.5158 15.9716 51.4257 16.0255 51.3242 16.0625C51.2226 16.0995 51.112 16.1186 51 16.1186C50.888 16.1186 50.7774 16.0995 50.6758 16.0625C50.5743 16.0255 50.4842 15.9716 50.412 15.9045C43.851 9.79808 39 8.44488 39 4.60865C39 2.06331 41.685 0 45 0Z" fill="#C1121F"/>
<path id="Vector_3" d="M84 0C87.315 0 90 2.06331 90 4.60865C90 2.06331 92.685 0 96 0C99.315 0 102 2.06331 102 4.60865C102 8.44488 97.149 9.79808 90.588 15.9045C90.5158 15.9716 90.4257 16.0255 90.3242 16.0625C90.2226 16.0995 90.112 16.1186 90 16.1186C89.888 16.1186 89.7774 16.0995 89.6758 16.0625C89.5743 16.0255 89.4842 15.9716 89.412 15.9045C82.851 9.79808 78 8.44488 78 4.60865C78 2.06331 80.685 0 84 0Z" fill="#C1121F"/>
</g>
</svg>
