<svg width="32" height="32" viewBox="0 0 32 32" fill="none" xmlns="http://www.w3.org/2000/svg">
<g id="Vector" filter="url(#filter0_dd_209_2)">
<path d="M22 12C22 13.5913 21.3679 15.1174 20.2426 16.2426C19.1174 17.3679 17.5913 18 16 18C14.4087 18 12.8826 17.3679 11.7574 16.2426C10.6321 15.1174 10 13.5913 10 12C10 10.4087 10.6321 8.88258 11.7574 7.75736C12.8826 6.63214 14.4087 6 16 6C17.5913 6 19.1174 6.63214 20.2426 7.75736C21.3679 8.88258 22 10.4087 22 12ZM16 0C16.1989 0 16.3897 0.0790176 16.5303 0.21967C16.671 0.360322 16.75 0.551088 16.75 0.75V3.75C16.75 3.94891 16.671 4.13968 16.5303 4.28033C16.3897 4.42098 16.1989 4.5 16 4.5C15.8011 4.5 15.6103 4.42098 15.4697 4.28033C15.329 4.13968 15.25 3.94891 15.25 3.75V0.75C15.25 0.551088 15.329 0.360322 15.4697 0.21967C15.6103 0.0790176 15.8011 0 16 0ZM16 19.5C16.1989 19.5 16.3897 19.579 16.5303 19.7197C16.671 19.8603 16.75 20.0511 16.75 20.25V23.25C16.75 23.4489 16.671 23.6397 16.5303 23.7803C16.3897 23.921 16.1989 24 16 24C15.8011 24 15.6103 23.921 15.4697 23.7803C15.329 23.6397 15.25 23.4489 15.25 23.25V20.25C15.25 20.0511 15.329 19.8603 15.4697 19.7197C15.6103 19.579 15.8011 19.5 16 19.5ZM28 12C28 12.1989 27.921 12.3897 27.7803 12.5303C27.6397 12.671 27.4489 12.75 27.25 12.75H24.25C24.0511 12.75 23.8603 12.671 23.7197 12.5303C23.579 12.3897 23.5 12.1989 23.5 12C23.5 11.8011 23.579 11.6103 23.7197 11.4697C23.8603 11.329 24.0511 11.25 24.25 11.25H27.25C27.4489 11.25 27.6397 11.329 27.7803 11.4697C27.921 11.6103 28 11.8011 28 12ZM8.5 12C8.5 12.1989 8.42098 12.3897 8.28033 12.5303C8.13968 12.671 7.94891 12.75 7.75 12.75H4.75C4.55109 12.75 4.36032 12.671 4.21967 12.5303C4.07902 12.3897 4 12.1989 4 12C4 11.8011 4.07902 11.6103 4.21967 11.4697C4.36032 11.329 4.55109 11.25 4.75 11.25H7.75C7.94891 11.25 8.13968 11.329 8.28033 11.4697C8.42098 11.6103 8.5 11.8011 8.5 12ZM24.4855 3.5145C24.6261 3.65515 24.7051 3.84588 24.7051 4.04475C24.7051 4.24362 24.6261 4.43435 24.4855 4.575L22.3645 6.6975C22.2948 6.76713 22.212 6.82235 22.1209 6.86C22.0299 6.89765 21.9323 6.91699 21.8337 6.91692C21.6347 6.91678 21.4439 6.83758 21.3032 6.69675C21.2336 6.62702 21.1784 6.54425 21.1408 6.45318C21.1031 6.36211 21.0838 6.26452 21.0838 6.16597C21.084 5.96695 21.1632 5.77613 21.304 5.6355L23.425 3.5145C23.5656 3.3739 23.7564 3.29491 23.9552 3.29491C24.1541 3.29491 24.3449 3.3739 24.4855 3.5145ZM10.696 17.304C10.8366 17.4446 10.9156 17.6354 10.9156 17.8342C10.9156 18.0331 10.8366 18.2239 10.696 18.3645L8.575 20.4855C8.43355 20.6221 8.2441 20.6977 8.04745 20.696C7.8508 20.6943 7.66269 20.6154 7.52364 20.4764C7.38458 20.3373 7.3057 20.1492 7.30399 19.9526C7.30229 19.7559 7.37788 19.5665 7.5145 19.425L9.6355 17.304C9.77615 17.1634 9.96688 17.0844 10.1657 17.0844C10.3646 17.0844 10.5554 17.1634 10.696 17.304ZM24.4855 20.4855C24.3449 20.6261 24.1541 20.7051 23.9552 20.7051C23.7564 20.7051 23.5656 20.6261 23.425 20.4855L21.304 18.3645C21.1674 18.223 21.0918 18.0336 21.0935 17.8369C21.0952 17.6403 21.1741 17.4522 21.3131 17.3131C21.4522 17.1741 21.6403 17.0952 21.8369 17.0935C22.0336 17.0918 22.223 17.1674 22.3645 17.304L24.4855 19.425C24.6261 19.5656 24.7051 19.7564 24.7051 19.9552C24.7051 20.1541 24.6261 20.3449 24.4855 20.4855ZM10.696 6.6975C10.5554 6.8381 10.3646 6.91709 10.1657 6.91709C9.96688 6.91709 9.77615 6.8381 9.6355 6.6975L7.5145 4.575C7.44287 4.50582 7.38573 4.42306 7.34642 4.33155C7.30712 4.24005 7.28643 4.14164 7.28556 4.04205C7.2847 3.94247 7.30367 3.84371 7.34138 3.75153C7.37909 3.65936 7.43478 3.57562 7.5052 3.5052C7.57562 3.43478 7.65936 3.37909 7.75153 3.34138C7.84371 3.30367 7.94247 3.2847 8.04205 3.28556C8.14164 3.28643 8.24005 3.30712 8.33155 3.34642C8.42306 3.38573 8.50582 3.44287 8.575 3.5145L10.696 5.6355C10.7658 5.70517 10.8213 5.78793 10.8591 5.87905C10.8969 5.97017 10.9163 6.06785 10.9163 6.1665C10.9163 6.26515 10.8969 6.36283 10.8591 6.45395C10.8213 6.54507 10.7658 6.62783 10.696 6.6975Z" fill="#F6BD60"/>
<path d="M22 12C22 13.5913 21.3679 15.1174 20.2426 16.2426C19.1174 17.3679 17.5913 18 16 18C14.4087 18 12.8826 17.3679 11.7574 16.2426C10.6321 15.1174 10 13.5913 10 12C10 10.4087 10.6321 8.88258 11.7574 7.75736C12.8826 6.63214 14.4087 6 16 6C17.5913 6 19.1174 6.63214 20.2426 7.75736C21.3679 8.88258 22 10.4087 22 12ZM16 0C16.1989 0 16.3897 0.0790176 16.5303 0.21967C16.671 0.360322 16.75 0.551088 16.75 0.75V3.75C16.75 3.94891 16.671 4.13968 16.5303 4.28033C16.3897 4.42098 16.1989 4.5 16 4.5C15.8011 4.5 15.6103 4.42098 15.4697 4.28033C15.329 4.13968 15.25 3.94891 15.25 3.75V0.75C15.25 0.551088 15.329 0.360322 15.4697 0.21967C15.6103 0.0790176 15.8011 0 16 0ZM16 19.5C16.1989 19.5 16.3897 19.579 16.5303 19.7197C16.671 19.8603 16.75 20.0511 16.75 20.25V23.25C16.75 23.4489 16.671 23.6397 16.5303 23.7803C16.3897 23.921 16.1989 24 16 24C15.8011 24 15.6103 23.921 15.4697 23.7803C15.329 23.6397 15.25 23.4489 15.25 23.25V20.25C15.25 20.0511 15.329 19.8603 15.4697 19.7197C15.6103 19.579 15.8011 19.5 16 19.5ZM28 12C28 12.1989 27.921 12.3897 27.7803 12.5303C27.6397 12.671 27.4489 12.75 27.25 12.75H24.25C24.0511 12.75 23.8603 12.671 23.7197 12.5303C23.579 12.3897 23.5 12.1989 23.5 12C23.5 11.8011 23.579 11.6103 23.7197 11.4697C23.8603 11.329 24.0511 11.25 24.25 11.25H27.25C27.4489 11.25 27.6397 11.329 27.7803 11.4697C27.921 11.6103 28 11.8011 28 12ZM8.5 12C8.5 12.1989 8.42098 12.3897 8.28033 12.5303C8.13968 12.671 7.94891 12.75 7.75 12.75H4.75C4.55109 12.75 4.36032 12.671 4.21967 12.5303C4.07902 12.3897 4 12.1989 4 12C4 11.8011 4.07902 11.6103 4.21967 11.4697C4.36032 11.329 4.55109 11.25 4.75 11.25H7.75C7.94891 11.25 8.13968 11.329 8.28033 11.4697C8.42098 11.6103 8.5 11.8011 8.5 12ZM24.4855 3.5145C24.6261 3.65515 24.7051 3.84588 24.7051 4.04475C24.7051 4.24362 24.6261 4.43435 24.4855 4.575L22.3645 6.6975C22.2948 6.76713 22.212 6.82235 22.1209 6.86C22.0299 6.89765 21.9323 6.91699 21.8337 6.91692C21.6347 6.91678 21.4439 6.83758 21.3032 6.69675C21.2336 6.62702 21.1784 6.54425 21.1408 6.45318C21.1031 6.36211 21.0838 6.26452 21.0838 6.16597C21.084 5.96695 21.1632 5.77613 21.304 5.6355L23.425 3.5145C23.5656 3.3739 23.7564 3.29491 23.9552 3.29491C24.1541 3.29491 24.3449 3.3739 24.4855 3.5145ZM10.696 17.304C10.8366 17.4446 10.9156 17.6354 10.9156 17.8342C10.9156 18.0331 10.8366 18.2239 10.696 18.3645L8.575 20.4855C8.43355 20.6221 8.2441 20.6977 8.04745 20.696C7.8508 20.6943 7.66269 20.6154 7.52364 20.4764C7.38458 20.3373 7.3057 20.1492 7.30399 19.9526C7.30229 19.7559 7.37788 19.5665 7.5145 19.425L9.6355 17.304C9.77615 17.1634 9.96688 17.0844 10.1657 17.0844C10.3646 17.0844 10.5554 17.1634 10.696 17.304ZM24.4855 20.4855C24.3449 20.6261 24.1541 20.7051 23.9552 20.7051C23.7564 20.7051 23.5656 20.6261 23.425 20.4855L21.304 18.3645C21.1674 18.223 21.0918 18.0336 21.0935 17.8369C21.0952 17.6403 21.1741 17.4522 21.3131 17.3131C21.4522 17.1741 21.6403 17.0952 21.8369 17.0935C22.0336 17.0918 22.223 17.1674 22.3645 17.304L24.4855 19.425C24.6261 19.5656 24.7051 19.7564 24.7051 19.9552C24.7051 20.1541 24.6261 20.3449 24.4855 20.4855ZM10.696 6.6975C10.5554 6.8381 10.3646 6.91709 10.1657 6.91709C9.96688 6.91709 9.77615 6.8381 9.6355 6.6975L7.5145 4.575C7.44287 4.50582 7.38573 4.42306 7.34642 4.33155C7.30712 4.24005 7.28643 4.14164 7.28556 4.04205C7.2847 3.94247 7.30367 3.84371 7.34138 3.75153C7.37909 3.65936 7.43478 3.57562 7.5052 3.5052C7.57562 3.43478 7.65936 3.37909 7.75153 3.34138C7.84371 3.30367 7.94247 3.2847 8.04205 3.28556C8.14164 3.28643 8.24005 3.30712 8.33155 3.34642C8.42306 3.38573 8.50582 3.44287 8.575 3.5145L10.696 5.6355C10.7658 5.70517 10.8213 5.78793 10.8591 5.87905C10.8969 5.97017 10.9163 6.06785 10.9163 6.1665C10.9163 6.26515 10.8969 6.36283 10.8591 6.45395C10.8213 6.54507 10.7658 6.62783 10.696 6.6975Z" stroke="#F6BD60"/>
</g>
<defs>
<filter id="filter0_dd_209_2" x="0" y="0" width="32" height="32" filterUnits="userSpaceOnUse" color-interpolation-filters="sRGB">
<feFlood flood-opacity="0" result="BackgroundImageFix"/>
<feColorMatrix in="SourceAlpha" type="matrix" values="0 0 0 0 0 0 0 0 0 0 0 0 0 0 0 0 0 0 127 0" result="hardAlpha"/>
<feOffset dy="4"/>
<feGaussianBlur stdDeviation="2"/>
<feComposite in2="hardAlpha" operator="out"/>
<feColorMatrix type="matrix" values="0 0 0 0 0 0 0 0 0 0 0 0 0 0 0 0 0 0 0.25 0"/>
<feBlend mode="normal" in2="BackgroundImageFix" result="effect1_dropShadow_209_2"/>
<feColorMatrix in="SourceAlpha" type="matrix" values="0 0 0 0 0 0 0 0 0 0 0 0 0 0 0 0 0 0 127 0" result="hardAlpha"/>
<feOffset dy="4"/>
<feGaussianBlur stdDeviation="2"/>
<feComposite in2="hardAlpha" operator="out"/>
<feColorMatrix type="matrix" values="0 0 0 0 0 0 0 0 0 0 0 0 0 0 0 0 0 0 0.25 0"/>
<feBlend mode="normal" in2="effect1_dropShadow_209_2" result="effect2_dropShadow_209_2"/>
<feBlend mode="normal" in="SourceGraphic" in2="effect2_dropShadow_209_2" result="shape"/>
</filter>
</defs>
</svg>
